<?xml version="1.0" standalone="no"?>
<!DOCTYPE svg PUBLIC "-//W3C//DTD SVG 20010904//EN"
 "http://www.w3.org/TR/2001/REC-SVG-20010904/DTD/svg10.dtd">
<svg version="1.0" xmlns="http://www.w3.org/2000/svg"
 width="180.000000pt" height="180.000000pt" viewBox="0 0 180.000000 180.000000"
 preserveAspectRatio="xMidYMid meet">
<metadata>
Created by potrace 1.14, written by Peter Selinger 2001-2017
</metadata>
<g transform="translate(0.000000,180.000000) scale(0.100000,-0.100000)"
fill="#000000" stroke="none">
<path d="M835 1705 c-75 -26 -127 -97 -129 -178 l-2 -49 -122 -45 -122 -45
-33 36 c-118 124 -318 60 -340 -109 -10 -73 33 -158 98 -193 44 -23 100 -30
146 -18 24 7 29 1 82 -88 32 -52 57 -98 57 -102 0 -9 -76 -130 -98 -156 -8
-10 -20 -14 -26 -11 -43 28 -153 2 -205 -47 -97 -94 -59 -272 68 -322 67 -26
175 0 220 52 16 18 20 17 146 -48 l130 -67 1 -46 c4 -103 91 -184 199 -183 65
0 140 47 171 106 20 39 24 107 9 152 -14 41 -13 46 20 82 6 6 75 79 154 162
l144 151 28 -14 c66 -35 157 -24 213 26 90 78 93 211 8 292 -56 54 -153 68
-221 32 l-31 -15 -170 169 -171 170 16 31 c79 153 -76 331 -240 275z m-87
-309 l21 -25 -53 -83 c-28 -46 -60 -95 -70 -110 l-18 -28 -77 40 -78 40 2 52
2 51 114 43 c63 24 119 43 125 43 6 1 20 -10 32 -23z m441 -207 l172 -171 -19
-31 c-11 -18 -23 -31 -28 -30 -31 5 -87 13 -139 18 -33 4 -63 9 -68 12 -4 2
-12 24 -18 48 -13 52 -63 109 -113 130 -70 30 -164 12 -212 -40 -15 -17 -29
-23 -41 -18 -44 15 -42 22 18 114 33 50 63 97 65 104 4 9 15 10 37 5 56 -12
157 1 157 21 0 23 29 -2 189 -162z m-647 -57 l57 -29 -46 -68 -45 -67 -49 82
c-27 44 -49 84 -49 87 0 4 7 14 16 24 18 20 25 18 116 -29z m149 -75 c10 -8
15 -29 15 -68 1 -93 48 -162 129 -189 l35 -12 1 -76 c1 -142 -2 -227 -9 -234
-4 -4 -18 -9 -31 -10 -21 -3 -38 22 -157 221 l-132 224 24 36 c14 20 27 44 30
54 4 9 10 17 14 17 4 0 12 11 18 25 12 27 38 32 63 12z m504 -142 c54 -5 119
-16 125 -21 2 -3 6 -17 8 -31 2 -14 10 -39 18 -56 16 -29 15 -30 -29 -76 -25
-25 -73 -75 -107 -111 -34 -36 -88 -93 -120 -126 l-59 -61 -51 25 -50 25 2
153 c2 85 6 154 11 154 35 -1 120 71 138 116 8 23 13 26 42 20 17 -4 50 -9 72
-11z m-570 -252 c149 -254 143 -239 116 -267 l-21 -22 -122 61 -122 62 -2 67
c-1 57 -6 74 -32 109 l-30 42 45 68 c25 37 49 67 52 67 3 0 56 -85 116 -187z"/>
</g>
</svg>
