<svg height="32" viewBox="0 0 251 32" width="251" xmlns="http://www.w3.org/2000/svg"><g><path d="m8.48313725 18.7545098c-3.82117647-.6776471-4.85647058-1.4305882-4.85647058-3.3066667 0-1.7945098 1.54980392-2.9866666 3.94039215-2.9866666 2.62901958 0 3.90274508.997647 4.37960788 3.2627451h3.1874509c-.5584313-4.4988236-3.7835294-6.01098042-7.52313721-6.01098042-3.2627451 0-7.04627451 1.98901962-7.04627451 5.85411762 0 3.6203922 1.83215687 5.1388236 7.24705883 6.1301961 3.22509799.5960784 4.85647059 1.3113726 4.85647059 3.5011765 0 2.227451-1.3929412 3.3066666-4.53647059 3.3066666-3.34431373 0-4.65568628-1.5498039-4.89411765-4.0219607h-3.23764706c.20078431 4.2603921 3.18745098 6.770196 8.16313725 6.770196 5.05725495 0 7.64235295-2.5474509 7.64235295-6.3309804 0-4.4172549-3.0243137-5.3772549-7.32235295-6.1678431z"/><path d="m28.6682353 28.505098c-4.0219608 0-6.8078431-2.7043137-6.8078431-7.8054902v-.32c0-4.8941176 2.905098-7.9247058 6.6886274-7.9247058 2.867451 0 5.2580392 1.2360784 5.772549 4.5364705h3.2627451c-.64-5.2956862-4.6996078-7.28470583-9.0352941-7.28470583-5.5717647 0-10.1145098 4.29803923-10.1145098 10.67294113v.32c0 6.4501961 4.3796078 10.547451 10.1898039 10.547451 5.0133334 0 8.64-3.3443137 9.0792157-7.8431372h-3.0682353c-.357647 3.3882353-3.0243137 5.1011764-5.9670588 5.1011764z"/><circle cx="43.218824" cy="3.545098" r="2.189804"/><path d="m41.625098 10.070588h3.306667v20.825098h-3.306667z"/><path d="m58.6603922 9.71294118c-5.734902 0-9.7568628 4.37960782-9.7568628 10.67294122v.32c0 6.412549 4.1788235 10.5474509 10.0705882 10.5474509 4.6996079 0 8.1631373-2.1898039 8.8784314-6.3686274h-3.3066666c-.4392157 2.4282353-2.3090197 3.6203921-5.5341177 3.6203921-4.2603922 0-6.5317647-2.6290196-6.6886274-7.3662745h15.686281v-1.0729411c.006268-7.4478432-4.5302026-10.35294122-9.3490261-10.35294122zm-6.2117647 8.75921572c.5584313-3.7019608 2.8235294-6.0109804 6.2117647-6.0109804 3.4258823 0 5.6533333 1.7129411 5.9733333 6.0109804z"/><path d="m82.1709804 9.71294118c-3.4258824 0-5.734902 1.71294122-6.6886275 3.66431372v-3.3066667h-3.3066666v20.8250981h3.3066666v-12.6243138c0-3.7396078 2.7482353-5.6909803 5.8101961-5.6909803 3.3443137 0 4.8941177 1.6313725 4.8941177 5.2956862v13.0196079h3.3066666v-12.7811765c0-6.0486274-3.0243137-8.40156862-7.3223529-8.40156862z"/><path d="m98.4596078 25.3615686v-12.505098h4.8564702v-2.7858824h-4.8564702v-4.73725487h-3.3066666v4.73725487h-2.9866667v2.7858824h2.9866667v12.8188235c0 3.2627451 1.8321568 5.4964706 5.6156858 5.4964706 1.355295 0 2.152157-.2007843 2.82353-.4392157v-2.7858823c-.715294.2760784-1.512157.4392157-2.547451.4392157-1.6690197 0-2.5850982-.9976471-2.5850982-3.0243138z"/><path d="m107.07451 10.070588h3.306667v20.825098h-3.306667z"/><circle cx="108.668235" cy="3.545098" r="2.189804"/><path d="m116.781176 6.68862745v3.38196075h-2.986666v2.7858824h2.986666v18.0329412h3.306667v-18.0329412h5.094902v-2.7858824h-5.094902v-3.73960781c0-2.10823529.83451-3.5827451 2.94902-3.5827451.916078 0 1.549804.11921569 2.152157.35764706v-2.78588235c-.646275-.23843137-1.204706-.32-2.277647-.32-4.097255 0-6.130197 2.46588235-6.130197 6.68862745z"/><path d="m128.734118 10.070588h3.306667v20.825098h-3.306667z"/><circle cx="130.327843" cy="3.545098" r="2.189804"/><path d="m146.246275 28.505098c-4.021961 0-6.807844-2.7043137-6.807844-7.8054902v-.32c0-4.8941176 2.905098-7.9247058 6.688628-7.9247058 2.867451 0 5.258039 1.2360784 5.772549 4.5364705h3.262745c-.64-5.2956862-4.699608-7.28470583-9.035294-7.28470583-5.571765 0-10.11451 4.29803923-10.11451 10.67294113v.32c0 6.4501961 4.379608 10.547451 10.189804 10.547451 5.013333 0 8.64-3.3443137 9.079216-7.8431372h-3.068236c-.351372 3.3882353-3.018039 5.1011764-5.967058 5.1011764z"/><path d="m183.792941 13.0196078c-1.192157-2.1082353-3.143529-3.50117643-6.412549-3.50117643-4.938039 0-8.840784 3.78352943-8.840784 10.86745103v.32c0 7.2031372 3.940392 10.6729411 8.759216 10.6729411 3.143529 0 5.452549-1.7129411 6.487843-3.8588235v3.3819608h7.127843v-29.98588237h-7.127843v12.10352937zm.19451 7.5607844c0 3.545098-1.593726 5.3333333-4.178824 5.3333333-2.465882 0-4.02196-1.7945098-4.02196-5.2956863v-.32c0-3.6203921 1.430588-5.4149019 4.103529-5.4149019 2.62902 0 4.103529 1.8698039 4.103529 5.3772549v.32z"/><path d="m204.241569 9.51215686c-5.690981 0-9.637647 2.46588234-9.951373 7.48549024h6.688628c.156862-1.3113726.878431-2.4658824 2.829803-2.4658824 2.271373 0 2.748236 1.3113726 2.748236 3.3066667v.4768627h-1.98902c-6.927059 0-11.068235 1.9137255-11.068235 6.8078432 0 4.4172549 3.306667 6.2494117 7.046274 6.2494117 3.344314 0 5.176471-1.3929412 6.174118-2.905098v2.4282353h6.927059v-13.4964706c-.012549-5.5341177-3.676863-7.88705884-9.40549-7.88705884zm2.309019 14.09882354c0 1.7945098-1.512157 2.9490196-3.545098 2.9490196-1.675294 0-2.465882-.7592157-2.465882-1.9513725 0-1.7129412 1.273725-2.2713726 4.141176-2.2713726h1.869804z"/><path d="m224.991373 23.5294118v-8.602353h4.103529v-4.8564706h-4.103529v-4.33568624h-7.127844v4.34196074h-2.509804v4.8564706h2.509804v9.2737255c0 4.8941177 2.62902 7.1654902 7.328628 7.1654902 1.675294 0 3.024314-.357647 3.940392-.5960784v-5.414902c-.64.2384314-1.236078.3576471-2.032941.3576471-1.355294 0-2.108235-.6776471-2.108235-2.1898039z"/><path d="m241.380392 9.51215686c-5.69098 0-9.637647 2.46588234-9.951372 7.48549024h6.688627c.156863-1.3113726.878431-2.4658824 2.829804-2.4658824 2.271373 0 2.748235 1.3113726 2.748235 3.3066667v.4768627h-1.989019c-6.927059 0-11.068236 1.9137255-11.068236 6.8078432 0 4.4172549 3.306667 6.2494117 7.046275 6.2494117 3.344314 0 5.17647-1.3929412 6.174118-2.905098v2.4282353h6.927058v-13.4964706c-.006274-5.5341177-3.670588-7.88705884-9.40549-7.88705884zm2.30902 14.09882354c0 1.7945098-1.512157 2.9490196-3.545098 2.9490196-1.675294 0-2.465883-.7592157-2.465883-1.9513725 0-1.7129412 1.273726-2.2713726 4.141177-2.2713726h1.869804z"/></g></svg>