<?xml version="1.0" standalone="no"?>
<!DOCTYPE svg PUBLIC "-//W3C//DTD SVG 20010904//EN"
 "http://www.w3.org/TR/2001/REC-SVG-20010904/DTD/svg10.dtd">
<svg version="1.0" xmlns="http://www.w3.org/2000/svg"
 width="512.000000pt" height="512.000000pt" viewBox="0 0 512.000000 512.000000"
 preserveAspectRatio="xMidYMid meet">
<metadata>
Created by potrace 1.14, written by Peter Selinger 2001-2017
</metadata>
<g transform="translate(0.000000,512.000000) scale(0.100000,-0.100000)"
fill="#000000" stroke="none">
<path d="M2490 4877 c-3 -3 -23 -7 -46 -10 -49 -7 -143 -47 -199 -85 -75 -50
-146 -133 -186 -217 -45 -97 -58 -162 -55 -276 l3 -87 -347 -126 c-191 -69
-352 -126 -358 -126 -5 0 -22 19 -37 43 -64 96 -176 180 -300 222 -60 21 -210
28 -280 14 -27 -6 -87 -29 -133 -50 -261 -125 -380 -440 -268 -714 31 -76 98
-167 160 -216 65 -52 176 -105 246 -118 75 -13 214 -6 274 14 49 17 50 17 67
-7 10 -12 19 -26 19 -29 0 -3 25 -47 55 -96 30 -50 97 -164 150 -252 l95 -162
-46 -72 c-26 -40 -75 -115 -109 -167 -34 -52 -83 -129 -110 -170 -26 -41 -49
-76 -49 -77 -1 -1 -28 7 -61 19 -83 28 -229 32 -315 9 -158 -42 -290 -150
-360 -295 -46 -95 -51 -115 -55 -221 -5 -108 9 -174 56 -272 54 -112 140 -198
252 -252 97 -47 163 -61 272 -57 146 5 283 67 384 176 l54 58 372 -187 373
-186 -5 -67 c-19 -255 140 -488 392 -573 73 -25 224 -28 305 -6 263 71 439
320 416 588 -7 79 -32 162 -64 218 l-20 32 60 64 c33 35 137 145 231 243 443
463 596 622 632 662 l34 37 58 -30 c82 -44 141 -61 227 -69 307 -27 577 204
602 514 29 364 -291 654 -654 592 -45 -7 -102 -27 -156 -54 l-85 -43 -485 485
-485 485 29 51 c27 48 54 114 67 161 10 40 11 182 2 235 -6 30 -28 92 -50 137
-65 135 -182 236 -334 288 -47 16 -224 33 -235 22z m-397 -865 c13 -21 41 -55
61 -76 l36 -39 -22 -36 c-12 -20 -72 -112 -133 -206 -61 -93 -140 -216 -175
-272 -36 -56 -68 -102 -72 -102 -4 -1 -108 49 -232 110 l-224 112 10 31 c6 17
11 83 12 146 l2 115 345 127 c189 69 349 127 355 127 6 1 23 -16 37 -37z
m1764 -1139 c-9 -11 -30 -50 -47 -87 l-31 -68 -57 7 c-31 4 -68 9 -82 10 -14
2 -63 8 -110 15 -47 6 -103 14 -125 16 -22 3 -47 7 -55 9 -8 2 -42 7 -74 11
-33 3 -67 8 -75 9 -9 2 -25 4 -36 4 -35 2 -44 15 -51 71 -32 269 -257 475
-529 486 -169 7 -308 -48 -425 -167 l-65 -67 -77 39 c-80 40 -88 51 -64 78 7
9 93 140 191 291 98 151 178 276 179 277 1 2 29 -7 62 -18 75 -27 225 -34 304
-13 30 8 89 31 130 52 l75 39 489 -488 c467 -465 489 -489 473 -506z m-2190
214 c-19 -28 -76 -116 -127 -195 l-92 -142 -147 246 -147 246 55 58 56 58 218
-109 217 -109 -33 -53z m346 -171 c-16 -74 -10 -215 13 -284 49 -147 154 -267
288 -332 45 -22 100 -42 124 -46 l42 -7 0 -447 0 -447 -39 -7 c-22 -3 -60 -15
-84 -25 -35 -15 -48 -17 -55 -8 -7 10 -233 388 -319 536 -10 16 -40 67 -67
113 -28 46 -112 189 -189 318 -77 129 -150 252 -164 273 -28 44 -29 37 34 134
27 40 93 142 148 227 l99 154 91 -45 91 -46 -13 -61z m1177 -281 c19 -2 103
-14 185 -25 83 -11 161 -22 175 -24 14 -3 65 -10 115 -16 49 -6 90 -12 91 -13
1 -1 7 -38 13 -82 12 -81 80 -245 102 -245 22 0 32 11 -461 -504 -58 -60 -121
-126 -140 -146 -19 -20 -104 -109 -189 -198 l-154 -161 -30 25 c-44 37 -134
80 -200 95 l-57 14 0 446 0 446 40 7 c49 8 141 47 195 84 77 52 145 133 188
225 39 80 44 87 67 82 14 -3 41 -7 60 -10z m-1602 -435 c76 -129 158 -265 180
-303 23 -37 42 -70 42 -72 0 -3 12 -24 27 -48 14 -23 36 -58 48 -77 13 -19 82
-136 154 -258 92 -157 130 -230 126 -243 -4 -10 -10 -19 -14 -19 -5 0 -27 -27
-50 -60 -23 -33 -44 -60 -46 -60 -4 0 -718 360 -723 365 -1 1 3 15 9 31 15 40
20 187 8 254 -14 77 -79 206 -133 264 -38 41 -44 52 -35 68 12 23 219 341 244
376 9 13 18 22 20 20 2 -2 66 -109 143 -238z"/>
</g>
</svg>
